<?xml version="1.0"?>
<svg xmlns="http://www.w3.org/2000/svg" xmlns:xlink="http://www.w3.org/1999/xlink" xmlns:svgjs="http://svgjs.com/svgjs" version="1.1" width="512" height="512" x="0" y="0" viewBox="0 0 512 512" style="enable-background:new 0 0 512 512" xml:space="preserve" class=""><g><g xmlns="http://www.w3.org/2000/svg" id="flat"><path d="m355.077 319.267h16v87.62h-16z" fill="#f5fbf7" transform="matrix(.707 -.707 .707 .707 -150.391 363.076)" data-original="#6b9777" style="" class=""/><path d="m318.959 142.255h85.573v16h-85.573z" fill="#f5fbf7" transform="matrix(.707 -.707 .707 .707 -.293 299.801)" data-original="#6b9777" style="" class=""/><circle cx="424" cy="88" fill="#f3af3e" r="64" data-original="#f3af3e" style="" class=""/><circle cx="424" cy="424" fill="#f3af3e" r="64" data-original="#f3af3e" style="" class=""/><path d="m105.114 355.077h87.62v16h-87.62z" fill="#f5fbf7" transform="matrix(.707 -.707 .707 .707 -213.115 211.647)" data-original="#6b9777" style="" class=""/><path d="m142.255 107.468h16v85.573h-16z" fill="#f5fbf7" transform="matrix(.707 -.707 .707 .707 -62.238 150.255)" data-original="#6b9777" style="" class=""/><circle cx="256" cy="256" fill="#abb908" r="128" data-original="#75caf9" style="" class=""/><circle cx="88" cy="88" fill="#f3af3e" r="64" data-original="#f3af3e" style="" class=""/><path d="m97.276 83.073-14.676-3.668a3.439 3.439 0 0 1 -.7-6.411 13.7 13.7 0 0 1 12.2 0l6.323 3.161a8 8 0 0 0 7.156-14.31l-6.323-3.162a29.273 29.273 0 0 0 -5.256-2.012v-11.671h-16v11.671a29.273 29.273 0 0 0 -5.255 2.012 19.438 19.438 0 0 0 3.979 36.244l14.676 3.673a3.439 3.439 0 0 1 .7 6.411 13.708 13.708 0 0 1 -12.2 0l-6.323-3.161a8 8 0 0 0 -7.156 14.31l6.323 3.162a29.273 29.273 0 0 0 5.256 2.007v11.671h16v-11.671a29.273 29.273 0 0 0 5.255-2.012 19.438 19.438 0 0 0 -3.979-36.244z" fill="#da922a" data-original="#da922a" style="" class=""/><circle cx="88" cy="424" fill="#f3af3e" r="64" data-original="#f3af3e" style="" class=""/><g fill="#da922a"><path d="m97.276 419.073-14.676-3.668a3.439 3.439 0 0 1 -.7-6.411 13.7 13.7 0 0 1 12.2 0l6.323 3.161a8 8 0 1 0 7.156-14.31l-6.323-3.162a29.273 29.273 0 0 0 -5.256-2.012v-11.671h-16v11.671a29.273 29.273 0 0 0 -5.255 2.012 19.438 19.438 0 0 0 3.979 36.244l14.676 3.673a3.439 3.439 0 0 1 .7 6.411 13.708 13.708 0 0 1 -12.2 0l-6.323-3.161a8 8 0 1 0 -7.156 14.31l6.323 3.162a29.273 29.273 0 0 0 5.256 2.007v11.671h16v-11.671a29.273 29.273 0 0 0 5.255-2.012 19.438 19.438 0 0 0 -3.979-36.244z" fill="#da922a" data-original="#da922a" style="" class=""/><path d="m414.724 94.927 14.676 3.673a3.439 3.439 0 0 1 .7 6.411 13.708 13.708 0 0 1 -12.2 0l-6.323-3.161a8 8 0 0 0 -7.156 14.31l6.323 3.162a29.273 29.273 0 0 0 5.256 2.007v11.671h16v-11.671a29.273 29.273 0 0 0 5.255-2.012 19.438 19.438 0 0 0 -3.979-36.244l-14.676-3.668a3.439 3.439 0 0 1 -.7-6.411 13.7 13.7 0 0 1 12.2 0l6.323 3.161a8 8 0 1 0 7.156-14.31l-6.323-3.162a29.273 29.273 0 0 0 -5.256-2.012v-11.671h-16v11.671a29.273 29.273 0 0 0 -5.255 2.012 19.438 19.438 0 0 0 3.979 36.244z" fill="#da922a" data-original="#da922a" style="" class=""/><path d="m433.276 419.073-14.676-3.668a3.439 3.439 0 0 1 -.7-6.411 13.7 13.7 0 0 1 12.2 0l6.323 3.161a8 8 0 0 0 7.156-14.31l-6.323-3.162a29.273 29.273 0 0 0 -5.256-2.012v-11.671h-16v11.671a29.273 29.273 0 0 0 -5.255 2.012 19.438 19.438 0 0 0 3.979 36.244l14.676 3.673a3.439 3.439 0 0 1 .7 6.411 13.708 13.708 0 0 1 -12.2 0l-6.323-3.161a8 8 0 1 0 -7.156 14.31l6.323 3.162a29.273 29.273 0 0 0 5.256 2.007v11.671h16v-11.671a29.273 29.273 0 0 0 5.255-2.012 19.438 19.438 0 0 0 -3.979-36.244z" fill="#da922a" data-original="#da922a" style="" class=""/></g><path d="m268.562 310.656-72-48a8 8 0 0 1 0-13.312l72-48 8.875 13.312-62.015 41.344 62.015 41.344z" fill="#c0f5f9" data-original="#c0f5f9" style="" class=""/><circle cx="289" cy="199" fill="#062f4a" r="25" data-original="#4799cf" style="" class=""/><circle cx="289" cy="313" fill="#062f4a" r="25" data-original="#4799cf" style="" class=""/><circle cx="201" cy="256" fill="#062f4a" r="25" data-original="#4799cf" style="" class=""/></g></g></svg>
