<?xml version="1.0"?>
<svg xmlns="http://www.w3.org/2000/svg" xmlns:xlink="http://www.w3.org/1999/xlink" xmlns:svgjs="http://svgjs.com/svgjs" version="1.1" width="512" height="512" x="0" y="0" viewBox="0 0 468.293 468.293" style="enable-background:new 0 0 512 512" xml:space="preserve" class=""><g>
<circle xmlns="http://www.w3.org/2000/svg" style="" cx="345.207" cy="143.523" r="123.086" fill="#474c11" data-original="#ce412d" class=""/>
<path xmlns="http://www.w3.org/2000/svg" style="" d="M450.254,143.534c0,57.997-47.034,105.031-105.031,105.031c-32.396,0-61.377-14.672-80.611-37.713  L417.301,67.123C437.585,86.259,450.254,113.403,450.254,143.534z" fill="#9b9904" data-original="#d15241" class=""/>
<path xmlns="http://www.w3.org/2000/svg" style="" d="M417.301,67.123L264.612,210.852c-15.262-18.216-24.42-41.684-24.42-67.318  c0-58.03,47.001-105.031,105.031-105.031C373.09,38.503,398.461,49.367,417.301,67.123z" fill="#d5db0f" data-original="#e56353" class=""/>
<path xmlns="http://www.w3.org/2000/svg" style="" d="M366.826,143.521c7.402-5.633,11.739-14.274,11.739-23.667c0-16.443-13.378-29.821-29.821-29.821  h-3.353V77.724h-6.154v12.308h-7.18V77.724h-6.154v12.308h-6.154h-7.896v12.308h7.896v35.026h-7.896v12.308h7.896v35.026h-7.896  v12.308h7.896h6.154v12.308h6.154v-12.308h7.18v12.308h6.154v-12.308h3.353c16.443,0,29.821-13.378,29.821-29.821  C378.565,157.794,374.228,149.154,366.826,143.521z M348.744,184.701h-16.687v-35.026h16.687c9.656,0,17.513,7.857,17.513,17.513  C366.257,176.844,358.4,184.701,348.744,184.701z M348.744,137.367h-16.687v-35.026h16.687c9.656,0,17.513,7.857,17.513,17.513  S358.4,137.367,348.744,137.367z" fill="#ebf0f3" data-original="#ebf0f3" class=""/>
<path xmlns="http://www.w3.org/2000/svg" style="" d="M458.384,312.977c-6.06-9.579-18.737-12.433-28.333-6.387l-95.013,71.596  c-4.193,3.16-9.732,3.831-14.529,1.696c-11.867-5.281-32.821-15.555-55.215-26.494c-3.532-1.725-5.495-5.585-4.804-9.455l0,0  c0.976-5.457,6.694-8.662,11.859-6.647l29.536,11.529c3.626,1.414,7.406,1.729,10.975,1.107c7.311-1.274,13.742-6.482,16.131-14.226  c3.226-10.459-3.002-21.562-13.198-25.542L196.318,263.52c-6.717-2.618-12.964-0.635-19.409,2.455L51.082,314.565l62.578,86.994  l36.311-19.227c7.692-4.073,16.762-4.597,24.897-1.502c81.351,30.958,151.848,52.866,154.457,53.168  c0.782,0.09,1.568,0.134,2.35,0.134c3.867,0,7.674-1.093,10.973-3.175l109.35-89.647  C461.582,335.25,464.443,322.566,458.384,312.977z" fill="#fcd462" data-original="#fcd462" class=""/>
<path xmlns="http://www.w3.org/2000/svg" style="" d="M67.32,287.436l70.702,119.407c1.742,2.942,0.708,6.744-2.284,8.398l-57.643,31.858  c-2.903,1.605-6.556,0.574-8.194-2.311L0.792,323.066c-1.69-2.977-0.583-6.764,2.445-8.359l56.05-29.543  C62.142,283.658,65.675,284.658,67.32,287.436z" fill="#d5db0f" data-original="#e56353" class=""/>
<circle xmlns="http://www.w3.org/2000/svg" style="" cx="90.661" cy="406.915" r="13.843" fill="#e1e6e9" data-original="#e1e6e9" class=""/>
<g xmlns="http://www.w3.org/2000/svg">
</g>
<g xmlns="http://www.w3.org/2000/svg">
</g>
<g xmlns="http://www.w3.org/2000/svg">
</g>
<g xmlns="http://www.w3.org/2000/svg">
</g>
<g xmlns="http://www.w3.org/2000/svg">
</g>
<g xmlns="http://www.w3.org/2000/svg">
</g>
<g xmlns="http://www.w3.org/2000/svg">
</g>
<g xmlns="http://www.w3.org/2000/svg">
</g>
<g xmlns="http://www.w3.org/2000/svg">
</g>
<g xmlns="http://www.w3.org/2000/svg">
</g>
<g xmlns="http://www.w3.org/2000/svg">
</g>
<g xmlns="http://www.w3.org/2000/svg">
</g>
<g xmlns="http://www.w3.org/2000/svg">
</g>
<g xmlns="http://www.w3.org/2000/svg">
</g>
<g xmlns="http://www.w3.org/2000/svg">
</g>
</g></svg>
